# xmcd
#
# Track frame offsets:
#	150
#	17287
#	36899
#	53886
#	73954
#	90866
#	111586
#	128723
#	142261
#	158948
#	171527
#	186491
#	203453
#	222540
#
# Disc length: 3172 seconds
#
# Revision: 1
# Processed by: cddbd v1.5.2PL0 Copyright (c) Steve Scherf et al.
# Submitted via: EasyCDDAExtractor 7.0.3.1
#
DISCID=d40c620e
DTITLE=Various Artist - Hitz Country 2007 Vol-01
DYEAR=2007
DGENRE=Country
TTITLE0=Keith Urban - Stupid Boy
TTITLE1=Martina McBride - Anyway
TTITLE2=Brooks and Dunn - Hillbilly Deluxe
TTITLE3=Sara Evans - You'll Always Be My Baby
TTITLE4=Dierks Bentley - Long Trip Alone
TTITLE5=Carrie Underwood - Wasted
TTITLE6=Jack Ingram - Lips Of An Angel
TTITLE7=Danielle Peck - Isn't That Everything
TTITLE8=Carolina Rain - Isn't She
TTITLE9=Blaine Larsen - Spoken Like A Man
TTITLE10=Jimmy Wayne - That's All I'll Ever Need
TTITLE11=Tracy Lawrence - Find Out Who Your Friends Are
TTITLE12=Heartland  - Built To Last
TTITLE13=Sugarland - Settlin'
EXTD=
EXTT0=
EXTT1=
EXTT2=
EXTT3=
EXTT4=
EXTT5=
EXTT6=
EXTT7=
EXTT8=
EXTT9=
EXTT10=
EXTT11=
EXTT12=
EXTT13=
PLAYORDER=
